<?xml version="1.0" encoding="UTF-8" standalone="no"?>
<svg width="153px" height="63px" viewBox="0 0 153 63" version="1.1" xmlns="http://www.w3.org/2000/svg" xmlns:xlink="http://www.w3.org/1999/xlink">
    <!-- Generator: Sketch 41.2 (35397) - http://www.bohemiancoding.com/sketch -->
    <title>1</title>
    <desc>Created with Sketch.</desc>
    <defs></defs>
    <g id="Page-1" stroke="none" stroke-width="1" fill="none" fill-rule="evenodd">
        <g id="sberbank-main" transform="translate(-644.000000, -618.000000)" fill="#00AC00">
            <g id="1" transform="translate(644.000000, 618.000000)">
                <g id="Group-11">
                    <circle id="Oval-2-Copy-19" cx="1.5" cy="1.5" r="1.5"></circle>
                    <circle id="Oval-2-Copy-18" cx="31.5" cy="1.5" r="1.5"></circle>
                    <circle id="Oval-2-Copy-17" cx="61.5" cy="1.5" r="1.5"></circle>
                    <circle id="Oval-2-Copy-75" cx="1.5" cy="31.5" r="1.5"></circle>
                    <circle id="Oval-2-Copy-74" cx="31.5" cy="31.5" r="1.5"></circle>
                    <circle id="Oval-2-Copy-73" cx="61.5" cy="31.5" r="1.5"></circle>
                    <circle id="Oval-2-Copy-123" cx="1.5" cy="61.5" r="1.5"></circle>
                    <circle id="Oval-2-Copy-122" cx="31.5" cy="61.5" r="1.5"></circle>
                    <circle id="Oval-2-Copy-121" cx="61.5" cy="61.5" r="1.5"></circle>
                </g>
                <g id="Group-12" transform="translate(90.000000, 0.000000)">
                    <circle id="Oval-2-Copy-16" cx="1.5" cy="1.5" r="1.5"></circle>
                    <circle id="Oval-2-Copy-31" cx="31.5" cy="1.5" r="1.5"></circle>
                    <circle id="Oval-2-Copy-72" cx="1.5" cy="31.5" r="1.5"></circle>
                    <circle id="Oval-2-Copy-71" cx="31.5" cy="31.5" r="1.5"></circle>
                    <circle id="Oval-2-Copy-120" cx="1.5" cy="61.5" r="1.5"></circle>
                    <circle id="Oval-2-Copy-119" cx="31.5" cy="61.5" r="1.5"></circle>
                    <circle id="Oval-2-Copy-30" cx="61.5" cy="1.5" r="1.5"></circle>
                    <circle id="Oval-2-Copy-70" cx="61.5" cy="31.5" r="1.5"></circle>
                    <circle id="Oval-2-Copy-118" cx="61.5" cy="61.5" r="1.5"></circle>
                </g>
            </g>
        </g>
    </g>
</svg>