<?xml version="1.0" encoding="UTF-8" standalone="no"?>
<svg width="1353px" height="63px" viewBox="0 0 1353 63" version="1.1" xmlns="http://www.w3.org/2000/svg" xmlns:xlink="http://www.w3.org/1999/xlink">
    <!-- Generator: Sketch 41.2 (35397) - http://www.bohemiancoding.com/sketch -->
    <title>7</title>
    <desc>Created with Sketch.</desc>
    <defs></defs>
    <g id="Page-1" stroke="none" stroke-width="1" fill="none" fill-rule="evenodd">
        <g id="sberbank-main" transform="translate(-44.000000, -618.000000)" fill="#00AC00">
            <g id="7" transform="translate(44.000000, 618.000000)">
                <g id="Group-5">
                    <circle id="Oval-2" cx="1.5" cy="1.5" r="1.5"></circle>
                    <circle id="Oval-2-Copy" cx="31.5" cy="1.5" r="1.5"></circle>
                    <circle id="Oval-2-Copy-3" cx="61.5" cy="1.5" r="1.5"></circle>
                    <circle id="Oval-2-Copy-2" cx="91.5" cy="1.5" r="1.5"></circle>
                    <circle id="Oval-2-Copy-7" cx="121.5" cy="1.5" r="1.5"></circle>
                    <circle id="Oval-2-Copy-95" cx="1.5" cy="31.5" r="1.5"></circle>
                    <circle id="Oval-2-Copy-94" cx="31.5" cy="31.5" r="1.5"></circle>
                    <circle id="Oval-2-Copy-93" cx="61.5" cy="31.5" r="1.5"></circle>
                    <circle id="Oval-2-Copy-92" cx="91.5" cy="31.5" r="1.5"></circle>
                    <circle id="Oval-2-Copy-91" cx="121.5" cy="31.5" r="1.5"></circle>
                    <circle id="Oval-2-Copy-143" cx="1.5" cy="61.5" r="1.5"></circle>
                    <circle id="Oval-2-Copy-142" cx="31.5" cy="61.5" r="1.5"></circle>
                    <circle id="Oval-2-Copy-141" cx="61.5" cy="61.5" r="1.5"></circle>
                    <circle id="Oval-2-Copy-140" cx="91.5" cy="61.5" r="1.5"></circle>
                    <circle id="Oval-2-Copy-139" cx="121.5" cy="61.5" r="1.5"></circle>
                </g>
                <g id="Group-3" transform="translate(1230.000000, 0.000000)">
                    <circle id="Oval-2-Copy-46" cx="1.5" cy="1.5" r="1.5"></circle>
                    <circle id="Oval-2-Copy-45" cx="31.5" cy="1.5" r="1.5"></circle>
                    <circle id="Oval-2-Copy-44" cx="61.5" cy="1.5" r="1.5"></circle>
                    <circle id="Oval-2-Copy-43" cx="91.5" cy="1.5" r="1.5"></circle>
                    <circle id="Oval-2-Copy-42" cx="121.5" cy="1.5" r="1.5"></circle>
                    <circle id="Oval-2-Copy-54" cx="1.5" cy="31.5" r="1.5"></circle>
                    <circle id="Oval-2-Copy-53" cx="31.5" cy="31.5" r="1.5"></circle>
                    <circle id="Oval-2-Copy-52" cx="61.5" cy="31.5" r="1.5"></circle>
                    <circle id="Oval-2-Copy-51" cx="91.5" cy="31.5" r="1.5"></circle>
                    <circle id="Oval-2-Copy-50" cx="121.5" cy="31.5" r="1.5"></circle>
                    <circle id="Oval-2-Copy-102" cx="1.5" cy="61.5" r="1.5"></circle>
                    <circle id="Oval-2-Copy-101" cx="31.5" cy="61.5" r="1.5"></circle>
                    <circle id="Oval-2-Copy-100" cx="61.5" cy="61.5" r="1.5"></circle>
                    <circle id="Oval-2-Copy-99" cx="91.5" cy="61.5" r="1.5"></circle>
                    <circle id="Oval-2-Copy-98" cx="121.5" cy="61.5" r="1.5"></circle>
                </g>
            </g>
        </g>
    </g>
</svg>