<?xml version="1.0" encoding="UTF-8" standalone="no"?>
<svg width="90px" height="98px" viewBox="0 0 90 98" version="1.1" xmlns="http://www.w3.org/2000/svg" xmlns:xlink="http://www.w3.org/1999/xlink">
    <!-- Generator: Sketch 41.2 (35397) - http://www.bohemiancoding.com/sketch -->
    <title>3.icon</title>
    <desc>Created with Sketch.</desc>
    <defs></defs>
    <g id="Page-1" stroke="none" stroke-width="1" fill="none" fill-rule="evenodd">
        <g id="sberbank-main" transform="translate(-686.000000, -136.000000)">
            <g id="3.icon" transform="translate(686.000000, 136.000000)">
                <path d="M41.7894615,26.8046154 L12.7223846,26.8046154 C11.7139231,26.8046154 10.8954615,25.9861538 10.8954615,24.9776923 C10.8954615,23.9692308 11.7139231,23.1507692 12.7223846,23.1507692 L41.7909231,23.1507692 C42.7993846,23.1507692 43.6178462,23.9692308 43.6178462,24.9776923 C43.6178462,25.9861538 42.7993846,26.8046154 41.7894615,26.8046154 Z" id="Shape" fill="#00AC00"></path>
                <path d="M41.7894615,16.7229231 L12.7223846,16.7229231 C11.7139231,16.7229231 10.8954615,15.9044615 10.8954615,14.896 C10.8954615,13.8875385 11.7139231,13.0690769 12.7223846,13.0690769 L41.7909231,13.0690769 C42.7993846,13.0690769 43.6178462,13.8875385 43.6178462,14.896 C43.6178462,15.9044615 42.7993846,16.7229231 41.7894615,16.7229231 Z" id="Shape" fill="#00AC00"></path>
                <path d="M41.7894615,36.8848462 L12.7223846,36.8848462 C11.7139231,36.8848462 10.8954615,36.0663846 10.8954615,35.0579231 C10.8954615,34.0494615 11.7139231,33.231 12.7223846,33.231 L41.7909231,33.231 C42.7993846,33.231 43.6178462,34.0494615 43.6178462,35.0579231 C43.6178462,36.0663846 42.7993846,36.8848462 41.7894615,36.8848462 Z" id="Shape" fill="#00AC00"></path>
                <path d="M41.7894615,56.7924615 L12.7223846,56.7924615 C11.7139231,56.7924615 10.8954615,55.974 10.8954615,54.9655385 C10.8954615,53.9570769 11.7139231,53.1386154 12.7223846,53.1386154 L41.7909231,53.1386154 C42.7993846,53.1386154 43.6178462,53.9570769 43.6178462,54.9655385 C43.6178462,55.974 42.7993846,56.7924615 41.7894615,56.7924615 Z" id="Shape" fill="#00AC00"></path>
                <path d="M41.7894615,65.2343077 L12.7223846,65.2343077 C11.7139231,65.2343077 10.8954615,64.4158462 10.8954615,63.4073846 C10.8954615,62.3989231 11.7139231,61.5804615 12.7223846,61.5804615 L41.7909231,61.5804615 C42.7993846,61.5804615 43.6178462,62.3989231 43.6178462,63.4073846 C43.6178462,64.4158462 42.7993846,65.2343077 41.7894615,65.2343077 Z" id="Shape" fill="#00AC00"></path>
                <path d="M56.608,26.8046154 L49.5414615,26.8046154 C48.533,26.8046154 47.7145385,25.9861538 47.7145385,24.9776923 C47.7145385,23.9692308 48.533,23.1507692 49.5414615,23.1507692 L56.608,23.1507692 C57.6164615,23.1507692 58.4349231,23.9692308 58.4349231,24.9776923 C58.4349231,25.9861538 57.6164615,26.8046154 56.608,26.8046154 Z" id="Shape" fill="#00AC00"></path>
                <path d="M56.608,16.7229231 L49.5414615,16.7229231 C48.533,16.7229231 47.7145385,15.9044615 47.7145385,14.896 C47.7145385,13.8875385 48.533,13.0690769 49.5414615,13.0690769 L56.608,13.0690769 C57.6164615,13.0690769 58.4349231,13.8875385 58.4349231,14.896 C58.4349231,15.9044615 57.6164615,16.7229231 56.608,16.7229231 Z" id="Shape" fill="#00AC00"></path>
                <path d="M56.608,36.8848462 L49.5414615,36.8848462 C48.533,36.8848462 47.7145385,36.0663846 47.7145385,35.0579231 C47.7145385,34.0494615 48.533,33.231 49.5414615,33.231 L56.608,33.231 C57.6164615,33.231 58.4349231,34.0494615 58.4349231,35.0579231 C58.4349231,36.0663846 57.6164615,36.8848462 56.608,36.8848462 Z" id="Shape" fill="#00AC00"></path>
                <path d="M2.28407692,90.3216154 C1.74769231,90.3216154 1.21715385,90.0877692 0.856153846,89.6361538 C0.226230769,88.8483846 0.353384615,87.6981538 1.14115385,87.0682308 L7.61576923,81.8885385 C8.28223077,81.3550769 9.23076923,81.3550769 9.89869231,81.8885385 L15.2274615,86.1547692 L20.5606154,81.8885385 C21.2270769,81.3550769 22.1756154,81.3536154 22.8435385,81.8870769 L28.1781538,86.1547692 L33.5127692,81.8870769 C34.1792308,81.3536154 35.1263077,81.3536154 35.7956923,81.8870769 L41.1317692,86.1547692 L44.4772308,83.4786923 C45.2635385,82.8458462 46.4137692,82.973 47.0451538,83.7622308 C47.6765385,84.55 47.5479231,85.7002308 46.7601538,86.3301538 L42.2732308,89.9196923 C41.6067692,90.4531538 40.6596923,90.4546154 39.9903077,89.9211538 L34.6542308,85.6534615 L29.3196154,89.9211538 C28.6531538,90.4546154 27.7046154,90.4546154 27.0366923,89.9211538 L21.7020769,85.6534615 L16.3689231,89.9196923 C15.7024615,90.4531538 14.7539231,90.4531538 14.086,89.9196923 L8.75723077,85.6534615 L3.42407692,89.9196923 C3.08646154,90.1900769 2.68453846,90.3216154 2.28407692,90.3216154 Z" id="Shape" fill="#00AC00"></path>
                <path d="M2.28261538,90.3216154 C1.27415385,90.3216154 0.455692308,89.5031538 0.455692308,88.4946923 L0.455692308,6.79469231 C0.455692308,3.48138462 3.09084615,0.786307692 6.33107692,0.786307692 L62.9993077,0.786307692 C66.2395385,0.786307692 68.8746923,3.48138462 68.8746923,6.79469231 L68.8746923,48.9615385 C68.8746923,49.97 68.0562308,50.7884615 67.0477692,50.7884615 C66.0393077,50.7884615 65.2208462,49.97 65.2208462,48.9615385 L65.2208462,6.79469231 C65.2208462,5.49538462 64.2240769,4.44015385 62.9993077,4.44015385 L6.33107692,4.44015385 C5.10630769,4.44015385 4.10953846,5.49684615 4.10953846,6.79469231 L4.10953846,88.4932308 C4.10953846,89.5031538 3.29253846,90.3216154 2.28261538,90.3216154 Z" id="Shape" fill="#00AC00"></path>
                <path d="M64.7692308,97.9230769 C78.4913826,97.9230769 89.6153846,86.7990749 89.6153846,73.0769231 C89.6153846,59.3547712 78.4913826,48.2307692 64.7692308,48.2307692 C51.0470789,48.2307692 39.9230769,59.3547712 39.9230769,73.0769231 C39.9230769,86.7990749 51.0470789,97.9230769 64.7692308,97.9230769 Z M64.7692308,93.5384615 C76.0698264,93.5384615 85.2307692,84.3775187 85.2307692,73.0769231 C85.2307692,61.7763274 76.0698264,52.6153846 64.7692308,52.6153846 C53.4686351,52.6153846 44.3076923,61.7763274 44.3076923,73.0769231 C44.3076923,84.3775187 53.4686351,93.5384615 64.7692308,93.5384615 Z" id="Combined-Shape" fill="#FCA922"></path>
                <g id="Page-1" transform="translate(54.000000, 61.000000)" fill="#FCA922">
                    <path d="M14.6569104,11.9413285 C14.2758041,12.3224347 14.1487687,12.8305763 14.1487687,13.338718 L14.7839458,16.6416386 L11.7350959,15.1172137 C11.2269543,14.8631429 10.7188127,14.8631429 10.210671,15.1172137 L7.1618212,16.6416386 L7.79699825,13.338718 C7.92403366,12.8305763 7.66996284,12.3224347 7.28885661,11.9413285 L4.87518383,9.5276557 L8.17810448,9.01951406 C8.68624611,8.89247865 9.19438775,8.63840784 9.32142316,8.1302662 L10.8471184,5.01281725 L12.4973084,8.38433702 C12.7513792,8.89247865 13.1324854,9.14654947 13.6406271,9.27358488 L16.9435477,9.78172652 L14.6569104,11.9413285 Z M21.8979287,8.1302662 C21.7708933,7.49508915 21.2627516,7.11398292 20.6275746,6.98694751 L14.9109812,6.09769965 L12.370273,0.889247865 C12.1162022,0.381106228 11.6080605,0 10.9728835,0 C10.3377064,0 9.8295648,0.381106228 9.57549398,0.889247865 L7.03478579,6.09769965 L1.31819237,6.98694751 C0.683015325,7.11398292 0.174873688,7.49508915 0.0478382785,8.1302662 C-0.0791971308,8.76544325 0.0478382785,9.40062029 0.428944507,9.78172652 L4.62111302,13.8468596 L3.60482974,19.563453 C3.47779433,20.1986301 3.73186515,20.7067717 4.24000679,21.087878 C4.74814842,21.4689842 5.38332547,21.4689842 5.89146711,21.2149134 L10.9728835,18.5471698 L16.0542999,21.2149134 C16.5624415,21.4689842 17.1976185,21.4689842 17.7057602,21.087878 C18.2139018,20.7067717 18.4679726,20.0715947 18.3409372,19.563453 L17.324654,13.8468596 L21.5168225,9.78172652 C21.8979287,9.40062029 22.1519995,8.76544325 21.8979287,8.1302662 L21.8979287,8.1302662 Z" id="Fill-1"></path>
                </g>
            </g>
        </g>
    </g>
</svg>