<?xml version="1.0" encoding="UTF-8" standalone="no"?>
<svg width="70px" height="20px" viewBox="0 0 70 20" version="1.1" xmlns="http://www.w3.org/2000/svg" xmlns:xlink="http://www.w3.org/1999/xlink">
    <!-- Generator: Sketch 41.2 (35397) - http://www.bohemiancoding.com/sketch -->
    <title>2.RBC-logo</title>
    <desc>Created with Sketch.</desc>
    <defs></defs>
    <g id="Page-1" stroke="none" stroke-width="1" fill="none" fill-rule="evenodd">
        <g id="sberbank-main" transform="translate(-1341.000000, -30.000000)">
            <g id="2.RBC-logo" transform="translate(1341.000000, 30.000000)">
                <g id="Layer_1">
                    <g id="Group">
                        <polygon id="Shape" fill="#9AD0AF" points="0.378378378 0.571428571 0.378378378 17.7142857 17.4054054 0.571428571"></polygon>
                        <polygon id="Shape" fill="#005F65" points="19.1081081 2.38095238 2.08108108 19.4285714 19.1081081 19.4285714"></polygon>
                        <path d="M29.1351351,0.571428571 L23.0810811,0.571428571 L23.0810811,19.3333333 L26.8648649,19.3333333 L26.8648649,12.3809524 L29.2297297,12.3809524 C33.5810811,12.3809524 36.1351351,10.2857143 36.1351351,6.57142857 L36.1351351,6.47619048 C36.0405405,2.76190476 33.4864865,0.571428571 29.1351351,0.571428571 Z M32.3513514,6.57142857 C32.3513514,8.47619048 31.2162162,9.52380952 29.0405405,9.52380952 L26.6756757,9.52380952 L26.6756757,3.61904762 L29.0405405,3.61904762 C31.3108108,3.61904762 32.3513514,4.57142857 32.3513514,6.47619048 L32.3513514,6.57142857 Z" id="Shape" fill="#000000"></path>
                        <path d="M45.2162162,8 L42.1891892,8 L42.1891892,3.61904762 L50.3243243,3.61904762 L50.3243243,0.571428571 L38.4054054,0.571428571 L38.4054054,19.3333333 L45.1216216,19.3333333 C49.3783784,19.3333333 51.8378378,17.2380952 51.8378378,13.6190476 L51.8378378,13.5238095 C51.8378378,10 49.472973,8 45.2162162,8 Z M42.0945946,10.7619048 L44.8378378,10.7619048 C47.1081081,10.7619048 48.1486486,11.6190476 48.1486486,13.5238095 L48.1486486,13.6190476 C48.1486486,15.4285714 47.1081081,16.3809524 44.9324324,16.3809524 L42.0945946,16.3809524 L42.0945946,10.7619048 Z" id="Shape" fill="#000000"></path>
                        <polygon id="Shape" fill="#000000" points="61.1081081 9.52380952 68.8648649 0.571428571 64.7027027 0.571428571 57.9864865 8.66666667 57.9864865 0.571428571 54.2027027 0.571428571 54.2027027 19.4285714 57.9864865 19.4285714 57.9864865 11.047619 64.7027027 19.4285714 69.2432432 19.4285714"></polygon>
                    </g>
                </g>
            </g>
        </g>
    </g>
</svg>