<?xml version="1.0" encoding="UTF-8" standalone="no"?>
<svg width="187px" height="42px" viewBox="0 0 187 42" version="1.1" xmlns="http://www.w3.org/2000/svg" xmlns:xlink="http://www.w3.org/1999/xlink">
    <!-- Generator: Sketch 41.2 (35397) - http://www.bohemiancoding.com/sketch -->
    <title>1.Sberbank-logo</title>
    <desc>Created with Sketch.</desc>
    <defs>
        <rect id="path-1" x="0" y="0" width="186.282186" height="41.909138"></rect>
        <rect id="path-3" x="0" y="0" width="186.282186" height="41.909138"></rect>
        <rect id="path-5" x="0" y="0" width="186.282186" height="41.909138"></rect>
        <rect id="path-7" x="0" y="0" width="186.282186" height="41.909138"></rect>
        <rect id="path-9" x="0" y="0" width="186.282186" height="41.909138"></rect>
        <rect id="path-11" x="0" y="0" width="186.282186" height="41.909138"></rect>
        <rect id="path-13" x="0" y="0" width="186.282186" height="41.909138"></rect>
        <rect id="path-15" x="0" y="0" width="186.282186" height="41.909138"></rect>
        <rect id="path-17" x="0" y="0" width="186.282186" height="41.909138"></rect>
    </defs>
    <g id="Page-1" stroke="none" stroke-width="1" fill="none" fill-rule="evenodd">
        <g id="sberbank-main" transform="translate(-29.000000, -20.000000)">
            <g id="1.Sberbank-logo" transform="translate(29.000000, 20.000000)">
                <g id="Group">
                    <g id="Clipped">
                        <mask id="mask-2" fill="white">
                            <use xlink:href="#path-1"></use>
                        </mask>
                        <g id="SVGID_1_"></g>
                        <path d="M59.2527718,20.9320901 C59.2527718,14.7611662 62.8349577,10.7489239 69.254569,10.7489239 C72.132338,10.7489239 73.8480676,11.3024958 75.0655944,11.8835155 L74.2078479,14.152462 C72.6582254,13.6543775 71.5237521,13.2944789 69.3101746,13.2944789 C65.3805127,13.2673859 62.2967662,15.4253577 62.2967662,20.6554817 C62.2967662,25.996107 65.491369,28.3201859 69.835707,28.3201859 C71.6897408,28.3201859 73.1008225,28.0434592 74.4014028,27.6281915 L75.0933972,29.952862 C73.6267099,30.5065521 72.0770873,30.9213465 69.3654254,30.9213465 C62.6966535,30.9214648 59.2527718,26.936907 59.2527718,20.9320901" id="Shape" fill="#299D30" mask="url(#mask-2)"></path>
                    </g>
                    <g id="Clipped">
                        <mask id="mask-4" fill="white">
                            <use xlink:href="#path-3"></use>
                        </mask>
                        <g id="SVGID_1_"></g>
                        <path d="M77.0101352,22.1493803 C77.0101352,19.0506085 77.5910366,14.1803831 79.3344507,12.5475887 C80.8563887,11.1087042 84.924,10.1402197 89.6560394,9.25502535 L90.1263211,11.8555944 C85.9202873,12.5752732 82.1845352,13.2394648 81.271538,14.1247775 C80.4690423,14.8994704 80.109262,16.6704507 79.9431549,17.9988338 C81.2160507,17.3073127 82.9594648,16.6431211 85.0899887,16.6431211 C88.7150028,16.6431211 91.0118704,18.4413127 91.0118704,23.0350479 C91.0118704,28.4306873 87.8850592,30.8380563 83.7065915,30.8380563 C79.5558085,30.8380563 77.0101352,28.2374873 77.0101352,22.1493803 M88.1062986,23.1455493 C88.1062986,20.7381803 87.0825634,18.8845014 84.3430986,18.8845014 C82.5996845,18.8845014 81.2160507,19.4932056 79.8601014,20.1852 C79.8326535,20.6832845 79.8048507,21.4024901 79.8048507,21.9005746 C79.8048507,26.4110197 81.1608,28.5140958 83.9279493,28.5140958 C87.1930648,28.5140958 88.1062986,25.7467099 88.1062986,23.1455493" id="Shape" fill="#299D30" mask="url(#mask-4)"></path>
                    </g>
                    <g id="Clipped">
                        <mask id="mask-6" fill="white">
                            <use xlink:href="#path-5"></use>
                        </mask>
                        <g id="SVGID_1_"></g>
                        <path d="M93.3868225,23.3116563 C93.3868225,17.3346423 96.4306986,15.0933803 100.221346,15.0933803 C104.455183,15.0933803 106.226282,17.7777127 106.226282,22.7030704 L106.226282,23.7270423 L96.2920394,23.7270423 C96.3198423,27.7116 98.5886704,28.5140958 101.245318,28.5140958 C102.684203,28.5140958 103.902085,28.2925014 105.395983,27.8499042 L105.894068,30.0911662 C104.566276,30.589369 102.766901,30.9214648 100.802248,30.9214648 C96.2919211,30.9214648 93.3868225,29.1504845 93.3868225,23.3116563 L93.3868225,23.3116563 Z M103.237893,21.7067831 C103.237893,19.0228056 102.26929,17.2796282 100.055831,17.2796282 C98.0632563,17.2796282 96.5688845,18.7463155 96.375093,21.7067831 L103.237893,21.7067831 Z" id="Shape" fill="#299D30" mask="url(#mask-6)"></path>
                    </g>
                    <g id="Clipped">
                        <mask id="mask-8" fill="white">
                            <use xlink:href="#path-7"></use>
                        </mask>
                        <g id="SVGID_1_"></g>
                        <path d="M109.139425,15.4808451 L112.017194,15.4808451 L112.017194,16.6704507 C113.317656,15.7574535 114.507262,15.1210648 116.361532,15.1210648 C119.931296,15.1210648 122.366349,17.6117239 122.366349,22.6474648 C122.366349,28.8183887 118.713414,30.893662 114.646158,30.893662 C113.705358,30.893662 112.681386,30.7552394 112.017194,30.6720676 L112.017194,36.6766479 L109.139425,36.6766479 L109.139425,15.4808451 Z M119.433093,22.785769 C119.433093,20.0463042 118.46449,17.5839211 115.559155,17.5839211 C113.981966,17.5839211 112.791887,18.3031268 112.017194,18.7183944 L112.017194,28.2925014 C112.376975,28.3479887 113.56658,28.5695831 114.590552,28.5695831 C118.049223,28.5695831 119.433093,26.1616225 119.433093,22.785769 L119.433093,22.785769 Z" id="Shape" fill="#299D30" mask="url(#mask-8)"></path>
                    </g>
                    <g id="Clipped">
                        <mask id="mask-10" fill="white">
                            <use xlink:href="#path-9"></use>
                        </mask>
                        <g id="SVGID_1_"></g>
                        <path d="M124.864225,22.1493803 C124.864225,19.0506085 125.445127,14.1803831 127.188423,12.5475887 C128.710597,11.1087042 132.778445,10.1402197 137.509893,9.25502535 L137.980648,11.8555944 C133.774614,12.5752732 130.03827,13.2394648 129.125273,14.1247775 C128.323369,14.8994704 127.963589,16.6704507 127.79689,17.9988338 C129.069668,17.3073127 130.813437,16.6431211 132.943724,16.6431211 C136.569093,16.6431211 138.865842,18.4413127 138.865842,23.0350479 C138.865842,28.4306873 135.739386,30.8380563 131.560445,30.8380563 C127.410017,30.8380563 124.864225,28.2374873 124.864225,22.1493803 M135.960389,23.1455493 C135.960389,20.7381803 134.936417,18.8845014 132.197425,18.8845014 C130.453656,18.8845014 129.069668,19.4932056 127.714192,20.1852 C127.68698,20.6832845 127.659177,21.4024901 127.659177,21.9005746 C127.659177,26.4110197 129.014772,28.5140958 131.782039,28.5140958 C135.04751,28.5140958 135.960389,25.7467099 135.960389,23.1455493" id="Shape" fill="#299D30" mask="url(#mask-10)"></path>
                    </g>
                    <g id="Clipped">
                        <mask id="mask-12" fill="white">
                            <use xlink:href="#path-11"></use>
                        </mask>
                        <g id="SVGID_1_"></g>
                        <path d="M140.72733,26.5215211 C140.72733,22.7029521 144.103301,21.9281408 146.732383,21.9004563 L150.024946,21.8448507 L150.024946,20.2121746 C150.024946,18.1369014 148.973527,17.5838028 146.760068,17.5838028 C145.155194,17.5838028 143.826693,17.860293 142.526113,18.3030085 L141.917527,16.1171155 C143.328608,15.5356225 145.01618,15.0931437 147.229758,15.0931437 C150.855008,15.0931437 152.847465,16.3659211 152.847465,19.4374817 L152.847465,27.3237803 C152.847465,28.2645803 153.649369,28.4583718 154.424654,28.4860563 L154.195251,30.6996338 C154.002051,30.7272 153.816068,30.7552394 153.622158,30.7552394 C152.07218,30.7552394 150.550597,30.2848394 150.273989,28.9286535 C149.333307,29.6484507 147.78333,30.8380563 145.376079,30.8380563 C142.5816,30.8381746 140.72733,29.3164732 140.72733,26.5215211 M150.024946,27.1857127 L150.024946,23.6992394 L146.814963,23.837662 C144.73969,23.8931493 143.550203,24.7782254 143.550203,26.3277296 C143.550203,27.8499042 144.6564,28.5418986 146.123561,28.5418986 C147.479273,28.5418986 148.945842,27.8775887 150.024946,27.1857127" id="Shape" fill="#299D30" mask="url(#mask-12)"></path>
                    </g>
                    <g id="Clipped">
                        <mask id="mask-14" fill="white">
                            <use xlink:href="#path-13"></use>
                        </mask>
                        <g id="SVGID_1_"></g>
                        <polygon id="Shape" fill="#299D30" mask="url(#mask-14)" points="156.895555 15.4808451 159.800535 15.4808451 159.800535 21.8726535 166.912141 21.8726535 166.912141 15.4808451 169.817594 15.4808451 169.817594 30.589369 166.912141 30.589369 166.912141 24.1696394 159.800535 24.1696394 159.800535 30.589369 156.895555 30.589369"></polygon>
                    </g>
                    <g id="Clipped">
                        <mask id="mask-16" fill="white">
                            <use xlink:href="#path-15"></use>
                        </mask>
                        <g id="SVGID_1_"></g>
                        <path d="M173.379431,15.4808451 L176.285121,15.4808451 L176.285121,30.589369 L173.379431,30.589369 L173.379431,15.4808451 Z M180.692755,27.9882085 L176.396214,22.8412563 L182.408248,15.4808451 L185.6736,15.4808451 L179.522552,22.6197803 L182.518749,25.9405014 C183.847132,27.4622028 185.064896,28.3479887 186.282304,28.6800845 L185.784101,30.8380563 C184.37302,30.7554761 182.684738,30.423262 180.692755,27.9882085 L180.692755,27.9882085 Z" id="Shape" fill="#299D30" mask="url(#mask-16)"></path>
                    </g>
                    <g id="Clipped">
                        <mask id="mask-18" fill="white">
                            <use xlink:href="#path-17"></use>
                        </mask>
                        <g id="SVGID_1_"></g>
                        <path d="M43.6161127,20.1043944 C43.6161127,32.1445521 33.8530648,41.909138 21.8081746,41.909138 C9.76470423,41.909138 0,32.1445521 0,20.1043944 C0,19.6129352 0.0202309859,19.1284563 0.0509915493,18.6481183 L13.2543718,26.243138 L41.2216394,10.1557183 C42.7520958,13.1385465 43.6161127,16.5192507 43.6161127,20.1043944 L43.6161127,20.1043944 Z M13.2543718,20.7550986 L0.961740845,13.6856113 C0.720625352,14.4692958 0.523757746,15.269662 0.371729577,16.0901408 L13.2543718,23.4994141 L40.021031,8.10469859 C39.5791437,7.43908732 39.1041296,6.79571831 38.594569,6.1800338 L13.2543718,20.7550986 Z M36.9339718,4.39485634 C36.3275155,3.8112338 35.6876958,3.26215775 35.0192451,2.75224225 L13.2543718,15.269662 L2.86475493,9.29300282 C2.47267606,9.97990986 2.11620845,10.6903606 1.79807324,11.4247099 L13.2543718,18.0105465 L36.9339718,4.39485634 Z M13.2543718,12.5268845 L32.8174986,1.27715493 C31.9995042,0.798473239 31.1501577,0.371256338 30.2688676,0 L13.2543718,9.78446197 L5.67828169,5.42687324 C5.13772394,6.01960563 4.63147606,6.64641127 4.15811831,7.2947493 L13.2543718,12.5268845 Z" id="Shape" fill="#299D30" mask="url(#mask-18)"></path>
                    </g>
                </g>
            </g>
        </g>
    </g>
</svg>