<?xml version="1.0" encoding="UTF-8" standalone="no"?>
<svg width="150px" height="32px" viewBox="0 0 150 32" version="1.1" xmlns="http://www.w3.org/2000/svg" xmlns:xlink="http://www.w3.org/1999/xlink">
    <!-- Generator: sketchtool 42 (36781) - http://www.bohemiancoding.com/sketch -->
    <title>28B48430-0377-490F-875A-9B3CFABF2B6E</title>
    <desc>Created with sketchtool.</desc>
    <defs></defs>
    <g id="desk" stroke="none" stroke-width="1" fill="none" fill-rule="evenodd">
        <g id="sberbank-main" transform="translate(-1261.000000, -788.000000)">
            <g id="6.social-icons" transform="translate(1261.000000, 788.000000)">
                <g id="fb">
                    <rect id="Rectangle-11" fill="#006ECA" x="0" y="0" width="32" height="32" rx="16"></rect>
                    <path d="M16.9799572,22.7738979 L16.9799572,16.0348073 L19.2419413,16.0348073 L19.5806413,13.4084641 L16.9799572,13.4084641 L16.9799572,11.7317099 C16.9799572,10.9713229 17.1911045,10.4531443 18.2814809,10.4531443 L19.6722038,10.4525366 L19.6722038,8.10351418 C19.4316835,8.07150784 18.606136,8 17.6456756,8 C15.6405526,8 14.2677911,9.22393872 14.2677911,11.4716077 L14.2677911,13.4084641 L12,13.4084641 L12,16.0348073 L14.2677911,16.0348073 L14.2677911,22.7738979 L16.9799572,22.7738979 L16.9799572,22.7738979 Z" id="f" fill="#FFFFFF"></path>
                </g>
                <g id="VK.com-logo" transform="translate(39.222222, 0.000000)">
                    <rect id="Rectangle-11" fill="#0072A4" x="0" y="0" width="32" height="32" rx="16"></rect>
                    <path d="M15.4551571,20.9785676 L16.6102309,20.9785676 C16.6102309,20.9785676 16.9590533,20.9401198 17.1374111,20.7482199 C17.3013427,20.5718351 17.2961028,20.240842 17.2961028,20.240842 C17.2961028,20.240842 17.2735103,18.6909444 17.9927266,18.4627059 C18.7020077,18.237734 19.6125792,19.9606136 20.5776588,20.6231447 C21.3074911,21.12433 21.8620953,21.0146341 21.8620953,21.0146341 L24.4428765,20.9785676 C24.4428765,20.9785676 25.7928444,20.895275 25.1527018,19.8338374 C25.1003036,19.7471421 24.7797899,19.0486811 23.2337712,17.613651 C21.6154155,16.11166 21.8323576,16.3546651 23.7816385,13.7565993 C24.9687637,12.1743783 25.4432737,11.2084821 25.2949935,10.7948087 C25.1537224,10.4006653 24.2805101,10.5047813 24.2805101,10.5047813 L21.3747921,10.5227464 C21.3747921,10.5227464 21.1592109,10.493417 20.9995665,10.5889584 C20.8433924,10.6823905 20.7431556,10.9006937 20.7431556,10.9006937 C20.7431556,10.9006937 20.2830722,12.1249742 19.6699452,13.1663373 C18.37605,15.3633867 17.8586009,15.4796835 17.6471028,15.3430399 C17.1550359,15.0250441 17.2780015,14.0658167 17.2780015,13.384164 C17.2780015,11.2548918 17.6009651,10.3671167 16.6490873,10.1373134 C16.333269,10.0610979 16.1006075,10.0106731 15.2927907,10.0024391 C14.2559188,9.99189143 13.3785552,10.0056374 12.8816571,10.2490507 C12.5510722,10.4109409 12.2960223,10.7716037 12.4514475,10.7923588 C12.6435516,10.8179455 13.0783886,10.9097445 13.3089405,11.2234532 C13.6067937,11.6286885 13.5963822,12.5383755 13.5963822,12.5383755 C13.5963822,12.5383755 13.7675267,15.0448464 13.1967947,15.3561054 C12.8051694,15.569645 12.2678498,15.1337193 11.1142729,13.1404103 C10.5233302,12.119394 10.0769928,10.9906555 10.0769928,10.9906555 C10.0769928,10.9906555 9.99104602,10.7797698 9.83752625,10.6668753 C9.6513427,10.5300956 9.39118906,10.4867482 9.39118906,10.4867482 L6.62987327,10.5047813 C6.62987327,10.5047813 6.21545009,10.5163497 6.06315513,10.696613 C5.92766842,10.857074 6.05233623,11.1885436 6.05233623,11.1885436 C6.05233623,11.1885436 8.21400008,16.2461261 10.6618793,18.7948559 C12.9066314,21.1319515 15.4551571,20.9785676 15.4551571,20.9785676" id="path2442" fill="#FFFFFF"></path>
                </g>
                <g id="Twitter_bird_logo_2012" transform="translate(78.444444, 0.000000)">
                    <rect id="Rectangle-11" fill="#01A1DF" x="0" y="0" width="32" height="32" rx="16"></rect>
                    <g id="g16" transform="translate(16.125786, 15.823325) scale(1, -1) translate(-16.125786, -15.823325) translate(7.125786, 7.823325)" fill="#FFFFFF">
                        <path d="M17.25,13.3541896 C16.615646,13.0726737 15.9334662,12.8824053 15.21772,12.7966849 C15.9482303,13.2348523 16.5091421,13.9283386 16.7733827,14.7545131 C16.0896886,14.3488143 15.3325524,14.0545406 14.526076,13.8959206 C13.8808697,14.5835265 12.9610753,15.0133275 11.9432318,15.0133275 C9.98868447,15.0133275 8.40450299,13.4290199 8.40450299,11.4745987 C8.40450299,11.1971335 8.43550772,10.9269621 8.49609124,10.6681224 C5.55486915,10.8155116 2.94729179,12.2247946 1.20184028,14.3655974 C0.897206496,13.8431734 0.722711821,13.235357 0.722711821,12.5867057 C0.722711821,11.3587821 1.34721045,10.2757996 2.29705053,9.64094084 C1.71697057,9.65907425 1.17121412,9.81833787 0.694066831,10.0835879 C0.693524217,10.0686976 0.693524217,10.0539587 0.693524217,10.0391693 C0.693524217,8.3242556 1.91352315,6.89427754 3.53228052,6.56896132 C3.23558405,6.48807393 2.92302558,6.44529573 2.60024576,6.44529573 C2.37198179,6.44529573 2.15065823,6.46688673 1.93420559,6.50839042 C2.38484049,5.10251453 3.6915189,4.07924484 5.24036736,4.05059985 C4.02821741,3.10127714 2.50256256,2.53582252 0.844434097,2.53582252 C0.558981099,2.53582252 0.277074023,2.55263095 -1.77635684e-15,2.58516257 C1.56676735,1.58109891 3.42667263,0.995428755 5.42538623,0.995428755 C11.9344869,0.995428755 15.4935322,6.38762718 15.4935322,11.064458 C15.4935322,11.217816 15.4899989,11.3701265 15.4835632,11.5218945 C16.1747024,12.0212385 16.7746067,12.644349 17.2493312,13.3541643" id="path22"></path>
                    </g>
                </g>
                <g id="g+" transform="translate(117.666667, 0.000000)">
                    <rect id="Rectangle-11" fill="#DD4B39" x="0" y="0" width="32" height="32" rx="16"></rect>
                    <path d="M13.887519,17.5306667 C15.0567819,17.5696596 16.2291784,17.5517612 17.3984413,17.5696596 C16.8826453,20.2149989 13.3541747,21.0728432 11.4873651,19.3452225 C9.56770162,17.8296124 9.65857698,14.5056258 11.6542833,13.0978323 C13.0493767,11.9619238 15.0333841,12.2429711 16.4284775,13.2263172 C16.9764454,12.7091816 17.4893166,12.1562492 17.9846395,11.5824353 C16.8241508,10.6378692 15.3998102,9.96518803 13.8845943,10.0369947 C10.7223409,9.92939125 7.8151652,12.7541406 7.76231126,15.979473 C7.5602964,18.6158631 9.25997887,21.201328 11.6601328,22.133962 C14.0517214,23.072562 17.1170411,22.4329077 18.6439559,20.2418465 C19.6521501,18.8579175 19.8689975,17.0763885 19.7517996,15.402463 C17.7941147,15.3875477 15.8393545,15.3905307 13.8845943,15.3964969 C13.8816696,16.1079578 13.8845943,16.8194188 13.887519,17.5306667 Z" id="Fill-1" fill="#FFFFFF"></path>
                    <path d="M25.320119,15.3875264 C25.3142695,14.792618 25.3113448,14.1949396 25.3084201,13.6000313 L23.5646578,13.6000313 C23.5588084,14.1949396 23.5529589,14.7896349 23.5500342,15.3875264 C22.963836,15.3905094 22.3805624,15.3934925 21.7974978,15.3994586 L21.7974978,17.1780045 C22.3805624,17.1839706 22.9667607,17.1899368 23.5500342,17.1959029 C23.5558837,17.7908113 23.5558837,18.3857196 23.5617331,18.9804149 L25.3084201,18.9804149 C25.3113448,18.3857196 25.3142695,17.7908113 25.320119,17.1929198 C25.9063172,17.1869537 26.4893819,17.1839706 27.0726554,17.1780045 L27.0726554,15.3994586 C26.4893819,15.3934925 25.9033925,15.3934925 25.320119,15.3875264" id="Fill-4" fill="#FFFFFF"></path>
                </g>
            </g>
        </g>
    </g>
</svg>